<svg xmlns="http://www.w3.org/2000/svg" xmlns:xlink="http://www.w3.org/1999/xlink" width="200" zoomAndPan="magnify" viewBox="0 0 150 74.999997" height="100" preserveAspectRatio="xMidYMid meet" version="1.0"><defs><g/><clipPath id="c2438f620b"><path d="M 7.5 7.5 L 142.5 7.5 L 142.5 67.5 L 7.5 67.5 Z M 7.5 7.5 " clip-rule="nonzero"/></clipPath><clipPath id="e0e7bd0c17"><path d="M 37.226562 19.296875 L 39.804688 19.296875 L 39.804688 22.363281 L 37.226562 22.363281 Z M 37.226562 19.296875 " clip-rule="nonzero"/></clipPath><clipPath id="f8ff455f8e"><path d="M 38.234375 18.164062 L 40.570312 18.164062 L 40.570312 22.363281 L 38.234375 22.363281 Z M 38.234375 18.164062 " clip-rule="nonzero"/></clipPath><clipPath id="367680bd20"><path d="M 41.417969 18.335938 L 42.949219 18.335938 L 42.949219 22.363281 L 41.417969 22.363281 Z M 41.417969 18.335938 " clip-rule="nonzero"/></clipPath><clipPath id="2435f61710"><path d="M 40.332031 17.507812 L 41.296875 17.507812 L 41.296875 22.363281 L 40.332031 22.363281 Z M 40.332031 17.507812 " clip-rule="nonzero"/></clipPath><clipPath id="8485699847"><path d="M 41.054688 17.113281 L 43.070312 17.113281 L 43.070312 22.363281 L 41.054688 22.363281 Z M 41.054688 17.113281 " clip-rule="nonzero"/></clipPath><clipPath id="8e80576436"><path d="M 42.0625 18 L 43.554688 18 L 43.554688 22.363281 L 42.0625 22.363281 Z M 42.0625 18 " clip-rule="nonzero"/></clipPath><clipPath id="e41f2eb806"><path d="M 40.046875 17.507812 L 42.507812 17.507812 L 42.507812 22.363281 L 40.046875 22.363281 Z M 40.046875 17.507812 " clip-rule="nonzero"/></clipPath><clipPath id="0e18c01708"><path d="M 42.386719 18.730469 L 44.699219 18.730469 L 44.699219 22.363281 L 42.386719 22.363281 Z M 42.386719 18.730469 " clip-rule="nonzero"/></clipPath><clipPath id="26a20cfecb"><path d="M 39.605469 18.46875 L 41.136719 18.46875 L 41.136719 22.363281 L 39.605469 22.363281 Z M 39.605469 18.46875 " clip-rule="nonzero"/></clipPath><clipPath id="7af9a90529"><path d="M 19.199219 17.933594 L 20.699219 17.933594 L 20.699219 19.433594 L 19.199219 19.433594 Z M 19.199219 17.933594 " clip-rule="nonzero"/></clipPath><clipPath id="2a43e3e6ad"><path d="M 46.152344 46.574219 L 47.652344 46.574219 L 47.652344 48.074219 L 46.152344 48.074219 Z M 46.152344 46.574219 " clip-rule="nonzero"/></clipPath><clipPath id="21527da7cb"><path d="M 113.101562 36.636719 L 114.601562 36.636719 L 114.601562 38.136719 L 113.101562 38.136719 Z M 113.101562 36.636719 " clip-rule="nonzero"/></clipPath><clipPath id="6013a2acb9"><path d="M 49.226562 31.296875 L 51.804688 31.296875 L 51.804688 34.363281 L 49.226562 34.363281 Z M 49.226562 31.296875 " clip-rule="nonzero"/></clipPath><clipPath id="24a0fe32ef"><path d="M 50.234375 30.164062 L 52.570312 30.164062 L 52.570312 34.363281 L 50.234375 34.363281 Z M 50.234375 30.164062 " clip-rule="nonzero"/></clipPath><clipPath id="a119383bd9"><path d="M 53.417969 30.335938 L 54.949219 30.335938 L 54.949219 34.363281 L 53.417969 34.363281 Z M 53.417969 30.335938 " clip-rule="nonzero"/></clipPath><clipPath id="b637d3dd79"><path d="M 52.332031 29.507812 L 53.296875 29.507812 L 53.296875 34.363281 L 52.332031 34.363281 Z M 52.332031 29.507812 " clip-rule="nonzero"/></clipPath><clipPath id="0c76e9504d"><path d="M 53.054688 29.113281 L 55.070312 29.113281 L 55.070312 34.363281 L 53.054688 34.363281 Z M 53.054688 29.113281 " clip-rule="nonzero"/></clipPath><clipPath id="bf6f614c50"><path d="M 54.0625 30 L 55.554688 30 L 55.554688 34.363281 L 54.0625 34.363281 Z M 54.0625 30 " clip-rule="nonzero"/></clipPath><clipPath id="4f45ffc708"><path d="M 52.046875 29.507812 L 54.507812 29.507812 L 54.507812 34.363281 L 52.046875 34.363281 Z M 52.046875 29.507812 " clip-rule="nonzero"/></clipPath><clipPath id="bd4a6bd6bd"><path d="M 54.386719 30.730469 L 56.699219 30.730469 L 56.699219 34.363281 L 54.386719 34.363281 Z M 54.386719 30.730469 " clip-rule="nonzero"/></clipPath><clipPath id="ee7e72cc63"><path d="M 51.605469 30.46875 L 53.136719 30.46875 L 53.136719 34.363281 L 51.605469 34.363281 Z M 51.605469 30.46875 " clip-rule="nonzero"/></clipPath><clipPath id="99e085965d"><path d="M 61.226562 43.296875 L 63.804688 43.296875 L 63.804688 46.363281 L 61.226562 46.363281 Z M 61.226562 43.296875 " clip-rule="nonzero"/></clipPath><clipPath id="be89990541"><path d="M 62.234375 42.164062 L 64.570312 42.164062 L 64.570312 46.363281 L 62.234375 46.363281 Z M 62.234375 42.164062 " clip-rule="nonzero"/></clipPath><clipPath id="550ed5be03"><path d="M 65.417969 42.335938 L 66.949219 42.335938 L 66.949219 46.363281 L 65.417969 46.363281 Z M 65.417969 42.335938 " clip-rule="nonzero"/></clipPath><clipPath id="ccad8db9e5"><path d="M 64.332031 41.507812 L 65.296875 41.507812 L 65.296875 46.363281 L 64.332031 46.363281 Z M 64.332031 41.507812 " clip-rule="nonzero"/></clipPath><clipPath id="8a6072100e"><path d="M 65.054688 41.113281 L 67.070312 41.113281 L 67.070312 46.363281 L 65.054688 46.363281 Z M 65.054688 41.113281 " clip-rule="nonzero"/></clipPath><clipPath id="bebd5e678a"><path d="M 66.0625 42 L 67.554688 42 L 67.554688 46.363281 L 66.0625 46.363281 Z M 66.0625 42 " clip-rule="nonzero"/></clipPath><clipPath id="596b6a879f"><path d="M 64.046875 41.507812 L 66.507812 41.507812 L 66.507812 46.363281 L 64.046875 46.363281 Z M 64.046875 41.507812 " clip-rule="nonzero"/></clipPath><clipPath id="a7adc4c6e3"><path d="M 66.386719 42.730469 L 68.699219 42.730469 L 68.699219 46.363281 L 66.386719 46.363281 Z M 66.386719 42.730469 " clip-rule="nonzero"/></clipPath><clipPath id="71c6f2362b"><path d="M 63.605469 42.46875 L 65.136719 42.46875 L 65.136719 46.363281 L 63.605469 46.363281 Z M 63.605469 42.46875 " clip-rule="nonzero"/></clipPath><clipPath id="f483619450"><path d="M 73.226562 55.296875 L 75.804688 55.296875 L 75.804688 58.363281 L 73.226562 58.363281 Z M 73.226562 55.296875 " clip-rule="nonzero"/></clipPath><clipPath id="388617d2a9"><path d="M 74.234375 54.164062 L 76.570312 54.164062 L 76.570312 58.363281 L 74.234375 58.363281 Z M 74.234375 54.164062 " clip-rule="nonzero"/></clipPath><clipPath id="7d057dfaeb"><path d="M 77.417969 54.335938 L 78.949219 54.335938 L 78.949219 58.363281 L 77.417969 58.363281 Z M 77.417969 54.335938 " clip-rule="nonzero"/></clipPath><clipPath id="4f5f5a7da9"><path d="M 76.332031 53.507812 L 77.296875 53.507812 L 77.296875 58.363281 L 76.332031 58.363281 Z M 76.332031 53.507812 " clip-rule="nonzero"/></clipPath><clipPath id="58e10c30fc"><path d="M 77.054688 53.113281 L 79.070312 53.113281 L 79.070312 58.363281 L 77.054688 58.363281 Z M 77.054688 53.113281 " clip-rule="nonzero"/></clipPath><clipPath id="0ec9a1b30a"><path d="M 78.0625 54 L 79.554688 54 L 79.554688 58.363281 L 78.0625 58.363281 Z M 78.0625 54 " clip-rule="nonzero"/></clipPath><clipPath id="acb00fe482"><path d="M 76.046875 53.507812 L 78.507812 53.507812 L 78.507812 58.363281 L 76.046875 58.363281 Z M 76.046875 53.507812 " clip-rule="nonzero"/></clipPath><clipPath id="245500a8b4"><path d="M 78.386719 54.730469 L 80.699219 54.730469 L 80.699219 58.363281 L 78.386719 58.363281 Z M 78.386719 54.730469 " clip-rule="nonzero"/></clipPath><clipPath id="be9cfcdfb7"><path d="M 75.605469 54.46875 L 77.136719 54.46875 L 77.136719 58.363281 L 75.605469 58.363281 Z M 75.605469 54.46875 " clip-rule="nonzero"/></clipPath><clipPath id="2ead27852a"><path d="M 61.582031 19.296875 L 64.160156 19.296875 L 64.160156 22.363281 L 61.582031 22.363281 Z M 61.582031 19.296875 " clip-rule="nonzero"/></clipPath><clipPath id="17b0fd1ecb"><path d="M 62.589844 18.164062 L 64.925781 18.164062 L 64.925781 22.363281 L 62.589844 22.363281 Z M 62.589844 18.164062 " clip-rule="nonzero"/></clipPath><clipPath id="bcb0ce0313"><path d="M 65.769531 18.335938 L 67.300781 18.335938 L 67.300781 22.363281 L 65.769531 22.363281 Z M 65.769531 18.335938 " clip-rule="nonzero"/></clipPath><clipPath id="bd0f6aee70"><path d="M 64.683594 17.507812 L 65.652344 17.507812 L 65.652344 22.363281 L 64.683594 22.363281 Z M 64.683594 17.507812 " clip-rule="nonzero"/></clipPath><clipPath id="7257ce5341"><path d="M 65.410156 17.113281 L 67.421875 17.113281 L 67.421875 22.363281 L 65.410156 22.363281 Z M 65.410156 17.113281 " clip-rule="nonzero"/></clipPath><clipPath id="2d62949254"><path d="M 66.414062 18 L 67.90625 18 L 67.90625 22.363281 L 66.414062 22.363281 Z M 66.414062 18 " clip-rule="nonzero"/></clipPath><clipPath id="5504868065"><path d="M 64.402344 17.507812 L 66.859375 17.507812 L 66.859375 22.363281 L 64.402344 22.363281 Z M 64.402344 17.507812 " clip-rule="nonzero"/></clipPath><clipPath id="a77478b88b"><path d="M 66.738281 18.730469 L 69.050781 18.730469 L 69.050781 22.363281 L 66.738281 22.363281 Z M 66.738281 18.730469 " clip-rule="nonzero"/></clipPath><clipPath id="9693dc327b"><path d="M 63.957031 18.46875 L 65.488281 18.46875 L 65.488281 22.363281 L 63.957031 22.363281 Z M 63.957031 18.46875 " clip-rule="nonzero"/></clipPath><clipPath id="63dea4eee7"><path d="M 85.933594 24.382812 L 88.511719 24.382812 L 88.511719 27.449219 L 85.933594 27.449219 Z M 85.933594 24.382812 " clip-rule="nonzero"/></clipPath><clipPath id="832a62d8a9"><path d="M 86.941406 23.246094 L 89.277344 23.246094 L 89.277344 27.449219 L 86.941406 27.449219 Z M 86.941406 23.246094 " clip-rule="nonzero"/></clipPath><clipPath id="899bd9ccb7"><path d="M 90.125 23.421875 L 91.65625 23.421875 L 91.65625 27.449219 L 90.125 27.449219 Z M 90.125 23.421875 " clip-rule="nonzero"/></clipPath><clipPath id="c9a0433b9a"><path d="M 89.035156 22.59375 L 90 22.59375 L 90 27.449219 L 89.035156 27.449219 Z M 89.035156 22.59375 " clip-rule="nonzero"/></clipPath><clipPath id="6c2f5a9e4a"><path d="M 89.761719 22.199219 L 91.777344 22.199219 L 91.777344 27.449219 L 89.761719 27.449219 Z M 89.761719 22.199219 " clip-rule="nonzero"/></clipPath><clipPath id="298ef03cdb"><path d="M 90.769531 23.074219 L 92.261719 23.074219 L 92.261719 27.449219 L 90.769531 27.449219 Z M 90.769531 23.074219 " clip-rule="nonzero"/></clipPath><clipPath id="1ac986ae3d"><path d="M 88.753906 22.59375 L 91.210938 22.59375 L 91.210938 27.449219 L 88.753906 27.449219 Z M 88.753906 22.59375 " clip-rule="nonzero"/></clipPath><clipPath id="541f45acbe"><path d="M 91.089844 23.816406 L 93.40625 23.816406 L 93.40625 27.449219 L 91.089844 27.449219 Z M 91.089844 23.816406 " clip-rule="nonzero"/></clipPath><clipPath id="f34c99c634"><path d="M 88.3125 23.554688 L 89.84375 23.554688 L 89.84375 27.449219 L 88.3125 27.449219 Z M 88.3125 23.554688 " clip-rule="nonzero"/></clipPath><clipPath id="bfca158a1c"><path d="M 75.015625 35.460938 L 77.59375 35.460938 L 77.59375 38.527344 L 75.015625 38.527344 Z M 75.015625 35.460938 " clip-rule="nonzero"/></clipPath><clipPath id="a5e5be55e7"><path d="M 76.023438 34.324219 L 78.359375 34.324219 L 78.359375 38.527344 L 76.023438 38.527344 Z M 76.023438 34.324219 " clip-rule="nonzero"/></clipPath><clipPath id="48366d3d48"><path d="M 79.207031 34.5 L 80.738281 34.5 L 80.738281 38.527344 L 79.207031 38.527344 Z M 79.207031 34.5 " clip-rule="nonzero"/></clipPath><clipPath id="3d7b88b462"><path d="M 78.117188 33.671875 L 79.085938 33.671875 L 79.085938 38.527344 L 78.117188 38.527344 Z M 78.117188 33.671875 " clip-rule="nonzero"/></clipPath><clipPath id="16042c1b5a"><path d="M 78.84375 33.277344 L 80.855469 33.277344 L 80.855469 38.527344 L 78.84375 38.527344 Z M 78.84375 33.277344 " clip-rule="nonzero"/></clipPath><clipPath id="d63de77b15"><path d="M 79.851562 34.148438 L 81.339844 34.148438 L 81.339844 38.527344 L 79.851562 38.527344 Z M 79.851562 34.148438 " clip-rule="nonzero"/></clipPath><clipPath id="1b454e1792"><path d="M 77.835938 33.671875 L 80.292969 33.671875 L 80.292969 38.527344 L 77.835938 38.527344 Z M 77.835938 33.671875 " clip-rule="nonzero"/></clipPath><clipPath id="83f7316aa0"><path d="M 80.171875 34.890625 L 82.488281 34.890625 L 82.488281 38.527344 L 80.171875 38.527344 Z M 80.171875 34.890625 " clip-rule="nonzero"/></clipPath><clipPath id="eb3bcb5701"><path d="M 77.390625 34.628906 L 78.921875 34.628906 L 78.921875 38.527344 L 77.390625 38.527344 Z M 77.390625 34.628906 " clip-rule="nonzero"/></clipPath><clipPath id="f9d714e186"><path d="M 112.085938 21 L 114.664062 21 L 114.664062 24.042969 L 112.085938 24.042969 Z M 112.085938 21 " clip-rule="nonzero"/></clipPath><clipPath id="449ab747c8"><path d="M 113.09375 19.84375 L 115.429688 19.84375 L 115.429688 24.042969 L 113.09375 24.042969 Z M 113.09375 19.84375 " clip-rule="nonzero"/></clipPath><clipPath id="88d1baf90c"><path d="M 116.273438 20.015625 L 117.804688 20.015625 L 117.804688 24.042969 L 116.273438 24.042969 Z M 116.273438 20.015625 " clip-rule="nonzero"/></clipPath><clipPath id="616e1fe34f"><path d="M 115.1875 19.1875 L 116.15625 19.1875 L 116.15625 24.042969 L 115.1875 24.042969 Z M 115.1875 19.1875 " clip-rule="nonzero"/></clipPath><clipPath id="a9d87b4d7c"><path d="M 115.914062 18.796875 L 117.925781 18.796875 L 117.925781 24.042969 L 115.914062 24.042969 Z M 115.914062 18.796875 " clip-rule="nonzero"/></clipPath><clipPath id="e9895ceae4"><path d="M 116.917969 19.667969 L 118.410156 19.667969 L 118.410156 24.042969 L 116.917969 24.042969 Z M 116.917969 19.667969 " clip-rule="nonzero"/></clipPath><clipPath id="3a87544fe2"><path d="M 114.90625 19.1875 L 117.363281 19.1875 L 117.363281 24.042969 L 114.90625 24.042969 Z M 114.90625 19.1875 " clip-rule="nonzero"/></clipPath><clipPath id="cc7f90d431"><path d="M 117.242188 20.410156 L 119.554688 20.410156 L 119.554688 24.042969 L 117.242188 24.042969 Z M 117.242188 20.410156 " clip-rule="nonzero"/></clipPath><clipPath id="e85ab41590"><path d="M 114.460938 20.148438 L 115.992188 20.148438 L 115.992188 24.042969 L 114.460938 24.042969 Z M 114.460938 20.148438 " clip-rule="nonzero"/></clipPath><clipPath id="b5a5ecc475"><path d="M 31.789062 35 L 34.367188 35 L 34.367188 38.027344 L 31.789062 38.027344 Z M 31.789062 35 " clip-rule="nonzero"/></clipPath><clipPath id="62a8561cc8"><path d="M 32.796875 33.824219 L 35.132812 33.824219 L 35.132812 38.027344 L 32.796875 38.027344 Z M 32.796875 33.824219 " clip-rule="nonzero"/></clipPath><clipPath id="ce9daa7052"><path d="M 35.980469 34 L 37.511719 34 L 37.511719 38.027344 L 35.980469 38.027344 Z M 35.980469 34 " clip-rule="nonzero"/></clipPath><clipPath id="d53e0d0dab"><path d="M 34.890625 33.171875 L 35.859375 33.171875 L 35.859375 38.027344 L 34.890625 38.027344 Z M 34.890625 33.171875 " clip-rule="nonzero"/></clipPath><clipPath id="72250d2dbc"><path d="M 35.617188 32.777344 L 37.632812 32.777344 L 37.632812 38.027344 L 35.617188 38.027344 Z M 35.617188 32.777344 " clip-rule="nonzero"/></clipPath><clipPath id="44c106d178"><path d="M 36.625 33.652344 L 38.117188 33.652344 L 38.117188 38.027344 L 36.625 38.027344 Z M 36.625 33.652344 " clip-rule="nonzero"/></clipPath><clipPath id="aa2b9ccc59"><path d="M 34.609375 33.171875 L 37.066406 33.171875 L 37.066406 38.027344 L 34.609375 38.027344 Z M 34.609375 33.171875 " clip-rule="nonzero"/></clipPath><clipPath id="ce2426d84e"><path d="M 36.945312 34.394531 L 39.261719 34.394531 L 39.261719 38.027344 L 36.945312 38.027344 Z M 36.945312 34.394531 " clip-rule="nonzero"/></clipPath><clipPath id="b445a33f44"><path d="M 34.167969 34.132812 L 35.699219 34.132812 L 35.699219 38.027344 L 34.167969 38.027344 Z M 34.167969 34.132812 " clip-rule="nonzero"/></clipPath><clipPath id="6e73dca379"><path d="M 13.085938 37.503906 L 15.664062 37.503906 L 15.664062 40.570312 L 13.085938 40.570312 Z M 13.085938 37.503906 " clip-rule="nonzero"/></clipPath><clipPath id="30491e4265"><path d="M 14.09375 36.367188 L 16.429688 36.367188 L 16.429688 40.570312 L 14.09375 40.570312 Z M 14.09375 36.367188 " clip-rule="nonzero"/></clipPath><clipPath id="3b109fb760"><path d="M 17.277344 36.542969 L 18.808594 36.542969 L 18.808594 40.570312 L 17.277344 40.570312 Z M 17.277344 36.542969 " clip-rule="nonzero"/></clipPath><clipPath id="2a5860e58d"><path d="M 16.1875 35.714844 L 17.15625 35.714844 L 17.15625 40.570312 L 16.1875 40.570312 Z M 16.1875 35.714844 " clip-rule="nonzero"/></clipPath><clipPath id="3afacd47a2"><path d="M 16.914062 35.320312 L 18.929688 35.320312 L 18.929688 40.570312 L 16.914062 40.570312 Z M 16.914062 35.320312 " clip-rule="nonzero"/></clipPath><clipPath id="14bd13f903"><path d="M 17.921875 36.195312 L 19.414062 36.195312 L 19.414062 40.570312 L 17.921875 40.570312 Z M 17.921875 36.195312 " clip-rule="nonzero"/></clipPath><clipPath id="9e40faced7"><path d="M 15.90625 35.714844 L 18.363281 35.714844 L 18.363281 40.570312 L 15.90625 40.570312 Z M 15.90625 35.714844 " clip-rule="nonzero"/></clipPath><clipPath id="1a1bed1c14"><path d="M 18.242188 36.9375 L 20.558594 36.9375 L 20.558594 40.570312 L 18.242188 40.570312 Z M 18.242188 36.9375 " clip-rule="nonzero"/></clipPath><clipPath id="29ed160f6a"><path d="M 15.464844 36.675781 L 16.996094 36.675781 L 16.996094 40.570312 L 15.464844 40.570312 Z M 15.464844 36.675781 " clip-rule="nonzero"/></clipPath><clipPath id="b9fec6dba1"><path d="M 93.789062 43.296875 L 96.367188 43.296875 L 96.367188 46.363281 L 93.789062 46.363281 Z M 93.789062 43.296875 " clip-rule="nonzero"/></clipPath><clipPath id="3fdcc19fad"><path d="M 94.792969 42.164062 L 97.132812 42.164062 L 97.132812 46.363281 L 94.792969 46.363281 Z M 94.792969 42.164062 " clip-rule="nonzero"/></clipPath><clipPath id="66e760e4f7"><path d="M 97.976562 42.335938 L 99.507812 42.335938 L 99.507812 46.363281 L 97.976562 46.363281 Z M 97.976562 42.335938 " clip-rule="nonzero"/></clipPath><clipPath id="384e180305"><path d="M 96.890625 41.507812 L 97.855469 41.507812 L 97.855469 46.363281 L 96.890625 46.363281 Z M 96.890625 41.507812 " clip-rule="nonzero"/></clipPath><clipPath id="11ca5cbc29"><path d="M 97.613281 41.113281 L 99.628906 41.113281 L 99.628906 46.363281 L 97.613281 46.363281 Z M 97.613281 41.113281 " clip-rule="nonzero"/></clipPath><clipPath id="207f50e2ed"><path d="M 98.621094 42 L 100.113281 42 L 100.113281 46.363281 L 98.621094 46.363281 Z M 98.621094 42 " clip-rule="nonzero"/></clipPath><clipPath id="6917dd127e"><path d="M 96.609375 41.507812 L 99.066406 41.507812 L 99.066406 46.363281 L 96.609375 46.363281 Z M 96.609375 41.507812 " clip-rule="nonzero"/></clipPath><clipPath id="d0a51e47ab"><path d="M 98.945312 42.730469 L 101.257812 42.730469 L 101.257812 46.363281 L 98.945312 46.363281 Z M 98.945312 42.730469 " clip-rule="nonzero"/></clipPath><clipPath id="ba7349bce3"><path d="M 96.164062 42.46875 L 97.695312 42.46875 L 97.695312 46.363281 L 96.164062 46.363281 Z M 96.164062 42.46875 " clip-rule="nonzero"/></clipPath><clipPath id="519b2c9a1d"><path d="M 127.917969 27.824219 L 130.496094 27.824219 L 130.496094 30.890625 L 127.917969 30.890625 Z M 127.917969 27.824219 " clip-rule="nonzero"/></clipPath><clipPath id="4cda5e8ac4"><path d="M 128.925781 26.6875 L 131.261719 26.6875 L 131.261719 30.890625 L 128.925781 30.890625 Z M 128.925781 26.6875 " clip-rule="nonzero"/></clipPath><clipPath id="743b81b270"><path d="M 132.109375 26.863281 L 133.640625 26.863281 L 133.640625 30.890625 L 132.109375 30.890625 Z M 132.109375 26.863281 " clip-rule="nonzero"/></clipPath><clipPath id="94c57762a3"><path d="M 131.019531 26.035156 L 131.988281 26.035156 L 131.988281 30.890625 L 131.019531 30.890625 Z M 131.019531 26.035156 " clip-rule="nonzero"/></clipPath><clipPath id="840881dbc2"><path d="M 131.746094 25.640625 L 133.761719 25.640625 L 133.761719 30.890625 L 131.746094 30.890625 Z M 131.746094 25.640625 " clip-rule="nonzero"/></clipPath><clipPath id="1a0c3c5b74"><path d="M 132.753906 26.515625 L 134.246094 26.515625 L 134.246094 30.890625 L 132.753906 30.890625 Z M 132.753906 26.515625 " clip-rule="nonzero"/></clipPath><clipPath id="13c7cfda90"><path d="M 130.738281 26.035156 L 133.195312 26.035156 L 133.195312 30.890625 L 130.738281 30.890625 Z M 130.738281 26.035156 " clip-rule="nonzero"/></clipPath><clipPath id="e90c2d2e99"><path d="M 133.078125 27.257812 L 135.390625 27.257812 L 135.390625 30.890625 L 133.078125 30.890625 Z M 133.078125 27.257812 " clip-rule="nonzero"/></clipPath><clipPath id="de9e8f3652"><path d="M 130.296875 27 L 131.828125 27 L 131.828125 30.890625 L 130.296875 30.890625 Z M 130.296875 27 " clip-rule="nonzero"/></clipPath><clipPath id="f5ada9c87b"><path d="M 106.125 56.242188 L 108.703125 56.242188 L 108.703125 59.308594 L 106.125 59.308594 Z M 106.125 56.242188 " clip-rule="nonzero"/></clipPath><clipPath id="d3ef9a8866"><path d="M 107.132812 55.105469 L 109.46875 55.105469 L 109.46875 59.308594 L 107.132812 59.308594 Z M 107.132812 55.105469 " clip-rule="nonzero"/></clipPath><clipPath id="86349fca09"><path d="M 110.316406 55.28125 L 111.84375 55.28125 L 111.84375 59.308594 L 110.316406 59.308594 Z M 110.316406 55.28125 " clip-rule="nonzero"/></clipPath><clipPath id="41e3da7223"><path d="M 109.226562 54.453125 L 110.195312 54.453125 L 110.195312 59.308594 L 109.226562 59.308594 Z M 109.226562 54.453125 " clip-rule="nonzero"/></clipPath><clipPath id="c63f39e8dc"><path d="M 109.953125 54.058594 L 111.964844 54.058594 L 111.964844 59.308594 L 109.953125 59.308594 Z M 109.953125 54.058594 " clip-rule="nonzero"/></clipPath><clipPath id="6a36a86f1b"><path d="M 110.960938 54.933594 L 112.449219 54.933594 L 112.449219 59.308594 L 110.960938 59.308594 Z M 110.960938 54.933594 " clip-rule="nonzero"/></clipPath><clipPath id="c4c45b8b85"><path d="M 108.945312 54.453125 L 111.402344 54.453125 L 111.402344 59.308594 L 108.945312 59.308594 Z M 108.945312 54.453125 " clip-rule="nonzero"/></clipPath><clipPath id="d661090ef9"><path d="M 111.28125 55.675781 L 113.597656 55.675781 L 113.597656 59.308594 L 111.28125 59.308594 Z M 111.28125 55.675781 " clip-rule="nonzero"/></clipPath><clipPath id="be2b6541e9"><path d="M 108.5 55.410156 L 110.03125 55.410156 L 110.03125 59.308594 L 108.5 59.308594 Z M 108.5 55.410156 " clip-rule="nonzero"/></clipPath><clipPath id="bf86a95087"><path d="M 32 16 L 34.425781 16 L 34.425781 20 L 32 20 Z M 32 16 " clip-rule="nonzero"/></clipPath><clipPath id="8605cefd80"><path d="M 25 25 L 27 25 L 27 26.507812 L 25 26.507812 Z M 25 25 " clip-rule="nonzero"/></clipPath><clipPath id="087d1cd8fe"><path d="M 32 25 L 34 25 L 34 26.507812 L 32 26.507812 Z M 32 25 " clip-rule="nonzero"/></clipPath><clipPath id="3aec4e4611"><path d="M 23 13.007812 L 26 13.007812 L 26 17 L 23 17 Z M 23 13.007812 " clip-rule="nonzero"/></clipPath><clipPath id="8871042727"><path d="M 40 49 L 58.867188 49 L 58.867188 64 L 40 64 Z M 40 49 " clip-rule="nonzero"/></clipPath></defs><g clip-path="url(#c2438f620b)"><path fill="#7ed957" d="M 7.5 7.5 L 142.5 7.5 L 142.5 67.5 L 7.5 67.5 Z M 7.5 7.5 " fill-opacity="1" fill-rule="nonzero"/></g><g clip-path="url(#e0e7bd0c17)"><path fill="#2e9141" d="M 37.226562 19.335938 C 38.4375 20.519531 38.835938 22.351562 38.953125 22.363281 L 39.785156 22.363281 C 38.386719 19.894531 37.226562 19.335938 37.226562 19.335938 " fill-opacity="1" fill-rule="nonzero"/></g><g clip-path="url(#f8ff455f8e)"><path fill="#23673a" d="M 39.574219 22.363281 C 39.574219 22.363281 39.066406 19.277344 38.269531 18.179688 C 38.269531 18.179688 39.652344 19.144531 40.535156 22.363281 L 39.574219 22.363281 " fill-opacity="1" fill-rule="nonzero"/></g><g clip-path="url(#367680bd20)"><path fill="#2e9141" d="M 41.96875 22.363281 C 41.96875 22.363281 42.0625 19.941406 41.433594 18.375 C 41.433594 18.375 42.050781 18.953125 42.929688 22.175781 L 41.96875 22.363281 " fill-opacity="1" fill-rule="nonzero"/></g><g clip-path="url(#2435f61710)"><path fill="#23673a" d="M 40.34375 22.363281 C 40.34375 22.363281 40.292969 19.570312 41.21875 17.511719 C 41.21875 17.511719 41.046875 20.328125 41.277344 22.363281 L 40.34375 22.363281 " fill-opacity="1" fill-rule="nonzero"/></g><g clip-path="url(#8485699847)"><path fill="#41ad3d" d="M 41.066406 22.363281 C 41.066406 22.363281 41.339844 19.183594 43.058594 17.113281 C 43.058594 17.113281 41.722656 20.640625 42.101562 22.363281 L 41.066406 22.363281 " fill-opacity="1" fill-rule="nonzero"/></g><g clip-path="url(#8e80576436)"><path fill="#23673a" d="M 42.089844 22.363281 C 42.089844 22.363281 42.214844 19.917969 43.542969 18.027344 C 43.542969 18.027344 42.652344 21.300781 42.894531 22.363281 L 42.089844 22.363281 " fill-opacity="1" fill-rule="nonzero"/></g><g clip-path="url(#e41f2eb806)"><path fill="#2e9141" d="M 42.503906 22.363281 L 41.769531 22.363281 C 41.769531 22.363281 41.074219 19.730469 40.066406 17.546875 C 40.066406 17.546875 41.914062 19.644531 42.503906 22.363281 " fill-opacity="1" fill-rule="nonzero"/></g><g clip-path="url(#0e18c01708)"><path fill="#2e9141" d="M 42.394531 22.363281 L 43.136719 22.363281 C 43.136719 22.363281 42.976562 21.425781 44.699219 18.75 C 44.699219 18.75 42.609375 20.066406 42.394531 22.363281 " fill-opacity="1" fill-rule="nonzero"/></g><g clip-path="url(#26a20cfecb)"><path fill="#41ad3d" d="M 40.167969 22.363281 C 40.167969 22.363281 40.261719 20.078125 39.632812 18.507812 C 39.632812 18.507812 40.246094 19.144531 41.128906 22.363281 L 40.167969 22.363281 " fill-opacity="1" fill-rule="nonzero"/></g><g clip-path="url(#7af9a90529)"><path fill="#000000" d="M 19.949219 17.933594 C 20.363281 17.933594 20.699219 18.269531 20.699219 18.683594 C 20.699219 19.097656 20.363281 19.433594 19.949219 19.433594 C 19.535156 19.433594 19.199219 19.097656 19.199219 18.683594 C 19.199219 18.269531 19.535156 17.933594 19.949219 17.933594 Z M 19.949219 17.933594 " fill-opacity="1" fill-rule="evenodd"/></g><g clip-path="url(#2a43e3e6ad)"><path fill="#000000" d="M 46.902344 46.574219 C 47.316406 46.574219 47.652344 46.910156 47.652344 47.324219 C 47.652344 47.738281 47.316406 48.074219 46.902344 48.074219 C 46.488281 48.074219 46.152344 47.738281 46.152344 47.324219 C 46.152344 46.910156 46.488281 46.574219 46.902344 46.574219 Z M 46.902344 46.574219 " fill-opacity="1" fill-rule="evenodd"/></g><g clip-path="url(#21527da7cb)"><path fill="#000000" d="M 113.851562 36.636719 C 114.265625 36.636719 114.601562 36.972656 114.601562 37.386719 C 114.601562 37.800781 114.265625 38.136719 113.851562 38.136719 C 113.4375 38.136719 113.101562 37.800781 113.101562 37.386719 C 113.101562 36.972656 113.4375 36.636719 113.851562 36.636719 Z M 113.851562 36.636719 " fill-opacity="1" fill-rule="evenodd"/></g><g clip-path="url(#6013a2acb9)"><path fill="#2e9141" d="M 49.226562 31.335938 C 50.4375 32.519531 50.835938 34.351562 50.953125 34.363281 L 51.785156 34.363281 C 50.386719 31.894531 49.226562 31.335938 49.226562 31.335938 " fill-opacity="1" fill-rule="nonzero"/></g><g clip-path="url(#24a0fe32ef)"><path fill="#23673a" d="M 51.574219 34.363281 C 51.574219 34.363281 51.066406 31.277344 50.269531 30.179688 C 50.269531 30.179688 51.652344 31.144531 52.535156 34.363281 L 51.574219 34.363281 " fill-opacity="1" fill-rule="nonzero"/></g><g clip-path="url(#a119383bd9)"><path fill="#2e9141" d="M 53.96875 34.363281 C 53.96875 34.363281 54.0625 31.941406 53.433594 30.375 C 53.433594 30.375 54.050781 30.953125 54.929688 34.175781 L 53.96875 34.363281 " fill-opacity="1" fill-rule="nonzero"/></g><g clip-path="url(#b637d3dd79)"><path fill="#23673a" d="M 52.34375 34.363281 C 52.34375 34.363281 52.292969 31.570312 53.21875 29.511719 C 53.21875 29.511719 53.046875 32.328125 53.277344 34.363281 L 52.34375 34.363281 " fill-opacity="1" fill-rule="nonzero"/></g><g clip-path="url(#0c76e9504d)"><path fill="#41ad3d" d="M 53.066406 34.363281 C 53.066406 34.363281 53.339844 31.183594 55.058594 29.113281 C 55.058594 29.113281 53.722656 32.640625 54.101562 34.363281 L 53.066406 34.363281 " fill-opacity="1" fill-rule="nonzero"/></g><g clip-path="url(#bf6f614c50)"><path fill="#23673a" d="M 54.089844 34.363281 C 54.089844 34.363281 54.214844 31.917969 55.542969 30.027344 C 55.542969 30.027344 54.652344 33.300781 54.894531 34.363281 L 54.089844 34.363281 " fill-opacity="1" fill-rule="nonzero"/></g><g clip-path="url(#4f45ffc708)"><path fill="#2e9141" d="M 54.503906 34.363281 L 53.769531 34.363281 C 53.769531 34.363281 53.074219 31.730469 52.066406 29.546875 C 52.066406 29.546875 53.914062 31.644531 54.503906 34.363281 " fill-opacity="1" fill-rule="nonzero"/></g><g clip-path="url(#bd4a6bd6bd)"><path fill="#2e9141" d="M 54.394531 34.363281 L 55.136719 34.363281 C 55.136719 34.363281 54.976562 33.425781 56.699219 30.75 C 56.699219 30.75 54.609375 32.066406 54.394531 34.363281 " fill-opacity="1" fill-rule="nonzero"/></g><g clip-path="url(#ee7e72cc63)"><path fill="#41ad3d" d="M 52.167969 34.363281 C 52.167969 34.363281 52.261719 32.078125 51.632812 30.507812 C 51.632812 30.507812 52.246094 31.144531 53.128906 34.363281 L 52.167969 34.363281 " fill-opacity="1" fill-rule="nonzero"/></g><g clip-path="url(#99e085965d)"><path fill="#2e9141" d="M 61.226562 43.335938 C 62.4375 44.519531 62.835938 46.351562 62.953125 46.363281 L 63.785156 46.363281 C 62.386719 43.894531 61.226562 43.335938 61.226562 43.335938 " fill-opacity="1" fill-rule="nonzero"/></g><g clip-path="url(#be89990541)"><path fill="#23673a" d="M 63.574219 46.363281 C 63.574219 46.363281 63.066406 43.277344 62.269531 42.179688 C 62.269531 42.179688 63.652344 43.144531 64.535156 46.363281 L 63.574219 46.363281 " fill-opacity="1" fill-rule="nonzero"/></g><g clip-path="url(#550ed5be03)"><path fill="#2e9141" d="M 65.96875 46.363281 C 65.96875 46.363281 66.0625 43.941406 65.433594 42.375 C 65.433594 42.375 66.050781 42.953125 66.929688 46.175781 L 65.96875 46.363281 " fill-opacity="1" fill-rule="nonzero"/></g><g clip-path="url(#ccad8db9e5)"><path fill="#23673a" d="M 64.34375 46.363281 C 64.34375 46.363281 64.292969 43.570312 65.21875 41.511719 C 65.21875 41.511719 65.046875 44.328125 65.277344 46.363281 L 64.34375 46.363281 " fill-opacity="1" fill-rule="nonzero"/></g><g clip-path="url(#8a6072100e)"><path fill="#41ad3d" d="M 65.066406 46.363281 C 65.066406 46.363281 65.339844 43.183594 67.058594 41.113281 C 67.058594 41.113281 65.722656 44.640625 66.101562 46.363281 L 65.066406 46.363281 " fill-opacity="1" fill-rule="nonzero"/></g><g clip-path="url(#bebd5e678a)"><path fill="#23673a" d="M 66.089844 46.363281 C 66.089844 46.363281 66.214844 43.917969 67.542969 42.027344 C 67.542969 42.027344 66.652344 45.300781 66.894531 46.363281 L 66.089844 46.363281 " fill-opacity="1" fill-rule="nonzero"/></g><g clip-path="url(#596b6a879f)"><path fill="#2e9141" d="M 66.503906 46.363281 L 65.769531 46.363281 C 65.769531 46.363281 65.074219 43.730469 64.066406 41.546875 C 64.066406 41.546875 65.914062 43.644531 66.503906 46.363281 " fill-opacity="1" fill-rule="nonzero"/></g><g clip-path="url(#a7adc4c6e3)"><path fill="#2e9141" d="M 66.394531 46.363281 L 67.136719 46.363281 C 67.136719 46.363281 66.976562 45.425781 68.699219 42.75 C 68.699219 42.75 66.609375 44.066406 66.394531 46.363281 " fill-opacity="1" fill-rule="nonzero"/></g><g clip-path="url(#71c6f2362b)"><path fill="#41ad3d" d="M 64.167969 46.363281 C 64.167969 46.363281 64.261719 44.078125 63.632812 42.507812 C 63.632812 42.507812 64.246094 43.144531 65.128906 46.363281 L 64.167969 46.363281 " fill-opacity="1" fill-rule="nonzero"/></g><g clip-path="url(#f483619450)"><path fill="#2e9141" d="M 73.226562 55.335938 C 74.4375 56.519531 74.835938 58.351562 74.953125 58.363281 L 75.785156 58.363281 C 74.386719 55.894531 73.226562 55.335938 73.226562 55.335938 " fill-opacity="1" fill-rule="nonzero"/></g><g clip-path="url(#388617d2a9)"><path fill="#23673a" d="M 75.574219 58.363281 C 75.574219 58.363281 75.066406 55.277344 74.269531 54.179688 C 74.269531 54.179688 75.652344 55.144531 76.535156 58.363281 L 75.574219 58.363281 " fill-opacity="1" fill-rule="nonzero"/></g><g clip-path="url(#7d057dfaeb)"><path fill="#2e9141" d="M 77.96875 58.363281 C 77.96875 58.363281 78.0625 55.941406 77.433594 54.375 C 77.433594 54.375 78.050781 54.953125 78.929688 58.175781 L 77.96875 58.363281 " fill-opacity="1" fill-rule="nonzero"/></g><g clip-path="url(#4f5f5a7da9)"><path fill="#23673a" d="M 76.34375 58.363281 C 76.34375 58.363281 76.292969 55.570312 77.21875 53.511719 C 77.21875 53.511719 77.046875 56.328125 77.277344 58.363281 L 76.34375 58.363281 " fill-opacity="1" fill-rule="nonzero"/></g><g clip-path="url(#58e10c30fc)"><path fill="#41ad3d" d="M 77.066406 58.363281 C 77.066406 58.363281 77.339844 55.183594 79.058594 53.113281 C 79.058594 53.113281 77.722656 56.640625 78.101562 58.363281 L 77.066406 58.363281 " fill-opacity="1" fill-rule="nonzero"/></g><g clip-path="url(#0ec9a1b30a)"><path fill="#23673a" d="M 78.089844 58.363281 C 78.089844 58.363281 78.214844 55.917969 79.542969 54.027344 C 79.542969 54.027344 78.652344 57.300781 78.894531 58.363281 L 78.089844 58.363281 " fill-opacity="1" fill-rule="nonzero"/></g><g clip-path="url(#acb00fe482)"><path fill="#2e9141" d="M 78.503906 58.363281 L 77.769531 58.363281 C 77.769531 58.363281 77.074219 55.730469 76.066406 53.546875 C 76.066406 53.546875 77.914062 55.644531 78.503906 58.363281 " fill-opacity="1" fill-rule="nonzero"/></g><g clip-path="url(#245500a8b4)"><path fill="#2e9141" d="M 78.394531 58.363281 L 79.136719 58.363281 C 79.136719 58.363281 78.976562 57.425781 80.699219 54.75 C 80.699219 54.75 78.609375 56.066406 78.394531 58.363281 " fill-opacity="1" fill-rule="nonzero"/></g><g clip-path="url(#be9cfcdfb7)"><path fill="#41ad3d" d="M 76.167969 58.363281 C 76.167969 58.363281 76.261719 56.078125 75.632812 54.507812 C 75.632812 54.507812 76.246094 55.144531 77.128906 58.363281 L 76.167969 58.363281 " fill-opacity="1" fill-rule="nonzero"/></g><g clip-path="url(#2ead27852a)"><path fill="#2e9141" d="M 61.582031 19.335938 C 62.792969 20.519531 63.191406 22.351562 63.308594 22.363281 L 64.136719 22.363281 C 62.742188 19.894531 61.582031 19.335938 61.582031 19.335938 " fill-opacity="1" fill-rule="nonzero"/></g><g clip-path="url(#17b0fd1ecb)"><path fill="#23673a" d="M 63.925781 22.363281 C 63.925781 22.363281 63.417969 19.277344 62.625 18.179688 C 62.625 18.179688 64.007812 19.144531 64.886719 22.363281 L 63.925781 22.363281 " fill-opacity="1" fill-rule="nonzero"/></g><g clip-path="url(#bcb0ce0313)"><path fill="#2e9141" d="M 66.324219 22.363281 C 66.324219 22.363281 66.414062 19.941406 65.785156 18.375 C 65.785156 18.375 66.402344 18.953125 67.28125 22.175781 L 66.324219 22.363281 " fill-opacity="1" fill-rule="nonzero"/></g><g clip-path="url(#bd0f6aee70)"><path fill="#23673a" d="M 64.695312 22.363281 C 64.695312 22.363281 64.644531 19.570312 65.570312 17.511719 C 65.570312 17.511719 65.402344 20.328125 65.628906 22.363281 L 64.695312 22.363281 " fill-opacity="1" fill-rule="nonzero"/></g><g clip-path="url(#7257ce5341)"><path fill="#41ad3d" d="M 65.421875 22.363281 C 65.421875 22.363281 65.695312 19.183594 67.414062 17.113281 C 67.414062 17.113281 66.074219 20.640625 66.453125 22.363281 L 65.421875 22.363281 " fill-opacity="1" fill-rule="nonzero"/></g><g clip-path="url(#2d62949254)"><path fill="#23673a" d="M 66.445312 22.363281 C 66.445312 22.363281 66.566406 19.917969 67.894531 18.027344 C 67.894531 18.027344 67.003906 21.300781 67.246094 22.363281 L 66.445312 22.363281 " fill-opacity="1" fill-rule="nonzero"/></g><g clip-path="url(#5504868065)"><path fill="#2e9141" d="M 66.855469 22.363281 L 66.125 22.363281 C 66.125 22.363281 65.425781 19.730469 64.421875 17.546875 C 64.421875 17.546875 66.265625 19.644531 66.855469 22.363281 " fill-opacity="1" fill-rule="nonzero"/></g><g clip-path="url(#a77478b88b)"><path fill="#2e9141" d="M 66.75 22.363281 L 67.488281 22.363281 C 67.488281 22.363281 67.332031 21.425781 69.050781 18.75 C 69.050781 18.75 66.964844 20.066406 66.75 22.363281 " fill-opacity="1" fill-rule="nonzero"/></g><g clip-path="url(#9693dc327b)"><path fill="#41ad3d" d="M 64.519531 22.363281 C 64.519531 22.363281 64.613281 20.078125 63.984375 18.507812 C 63.984375 18.507812 64.601562 19.144531 65.480469 22.363281 L 64.519531 22.363281 " fill-opacity="1" fill-rule="nonzero"/></g><g clip-path="url(#63dea4eee7)"><path fill="#2e9141" d="M 85.933594 24.421875 C 87.144531 25.605469 87.542969 27.4375 87.660156 27.449219 L 88.488281 27.449219 C 87.09375 24.980469 85.933594 24.421875 85.933594 24.421875 " fill-opacity="1" fill-rule="nonzero"/></g><g clip-path="url(#832a62d8a9)"><path fill="#23673a" d="M 88.28125 27.449219 C 88.28125 27.449219 87.773438 24.363281 86.976562 23.261719 C 86.976562 23.261719 88.359375 24.226562 89.242188 27.449219 L 88.28125 27.449219 " fill-opacity="1" fill-rule="nonzero"/></g><g clip-path="url(#899bd9ccb7)"><path fill="#2e9141" d="M 90.675781 27.449219 C 90.675781 27.449219 90.769531 25.027344 90.140625 23.460938 C 90.140625 23.460938 90.757812 24.039062 91.636719 27.261719 L 90.675781 27.449219 " fill-opacity="1" fill-rule="nonzero"/></g><g clip-path="url(#c9a0433b9a)"><path fill="#23673a" d="M 89.050781 27.449219 C 89.050781 27.449219 89 24.65625 89.925781 22.597656 C 89.925781 22.597656 89.753906 25.414062 89.984375 27.449219 L 89.050781 27.449219 " fill-opacity="1" fill-rule="nonzero"/></g><g clip-path="url(#6c2f5a9e4a)"><path fill="#41ad3d" d="M 89.773438 27.449219 C 89.773438 27.449219 90.046875 24.269531 91.765625 22.199219 C 91.765625 22.199219 90.429688 25.726562 90.804688 27.449219 L 89.773438 27.449219 " fill-opacity="1" fill-rule="nonzero"/></g><g clip-path="url(#298ef03cdb)"><path fill="#23673a" d="M 90.796875 27.449219 C 90.796875 27.449219 90.921875 25.003906 92.25 23.113281 C 92.25 23.113281 91.355469 26.386719 91.601562 27.449219 L 90.796875 27.449219 " fill-opacity="1" fill-rule="nonzero"/></g><g clip-path="url(#1ac986ae3d)"><path fill="#2e9141" d="M 91.210938 27.449219 L 90.476562 27.449219 C 90.476562 27.449219 89.777344 24.816406 88.773438 22.632812 C 88.773438 22.632812 90.621094 24.730469 91.210938 27.449219 " fill-opacity="1" fill-rule="nonzero"/></g><g clip-path="url(#541f45acbe)"><path fill="#2e9141" d="M 91.101562 27.449219 L 91.84375 27.449219 C 91.84375 27.449219 91.683594 26.511719 93.40625 23.835938 C 93.40625 23.835938 91.316406 25.148438 91.101562 27.449219 " fill-opacity="1" fill-rule="nonzero"/></g><g clip-path="url(#f34c99c634)"><path fill="#41ad3d" d="M 88.875 27.449219 C 88.875 27.449219 88.96875 25.160156 88.339844 23.59375 C 88.339844 23.59375 88.953125 24.226562 89.835938 27.449219 L 88.875 27.449219 " fill-opacity="1" fill-rule="nonzero"/></g><g clip-path="url(#bfca158a1c)"><path fill="#2e9141" d="M 75.015625 35.5 C 76.226562 36.683594 76.625 38.515625 76.742188 38.527344 L 77.570312 38.527344 C 76.175781 36.058594 75.015625 35.5 75.015625 35.5 " fill-opacity="1" fill-rule="nonzero"/></g><g clip-path="url(#a5e5be55e7)"><path fill="#23673a" d="M 77.363281 38.527344 C 77.363281 38.527344 76.851562 35.441406 76.058594 34.339844 C 76.058594 34.339844 77.441406 35.304688 78.320312 38.527344 L 77.363281 38.527344 " fill-opacity="1" fill-rule="nonzero"/></g><g clip-path="url(#48366d3d48)"><path fill="#2e9141" d="M 79.757812 38.527344 C 79.757812 38.527344 79.851562 36.105469 79.222656 34.539062 C 79.222656 34.539062 79.835938 35.117188 80.71875 38.335938 L 79.757812 38.527344 " fill-opacity="1" fill-rule="nonzero"/></g><g clip-path="url(#3d7b88b462)"><path fill="#23673a" d="M 78.128906 38.527344 C 78.128906 38.527344 78.078125 35.734375 79.003906 33.675781 C 79.003906 33.675781 78.835938 36.492188 79.0625 38.527344 L 78.128906 38.527344 " fill-opacity="1" fill-rule="nonzero"/></g><g clip-path="url(#16042c1b5a)"><path fill="#41ad3d" d="M 78.855469 38.527344 C 78.855469 38.527344 79.128906 35.347656 80.847656 33.277344 C 80.847656 33.277344 79.507812 36.804688 79.886719 38.527344 L 78.855469 38.527344 " fill-opacity="1" fill-rule="nonzero"/></g><g clip-path="url(#d63de77b15)"><path fill="#23673a" d="M 79.878906 38.527344 C 79.878906 38.527344 80 36.078125 81.328125 34.1875 C 81.328125 34.1875 80.4375 37.464844 80.683594 38.527344 L 79.878906 38.527344 " fill-opacity="1" fill-rule="nonzero"/></g><g clip-path="url(#1b454e1792)"><path fill="#2e9141" d="M 80.292969 38.527344 L 79.558594 38.527344 C 79.558594 38.527344 78.859375 35.890625 77.855469 33.707031 C 77.855469 33.707031 79.699219 35.808594 80.292969 38.527344 " fill-opacity="1" fill-rule="nonzero"/></g><g clip-path="url(#83f7316aa0)"><path fill="#2e9141" d="M 80.183594 38.527344 L 80.921875 38.527344 C 80.921875 38.527344 80.765625 37.589844 82.488281 34.914062 C 82.488281 34.914062 80.398438 36.226562 80.183594 38.527344 " fill-opacity="1" fill-rule="nonzero"/></g><g clip-path="url(#eb3bcb5701)"><path fill="#41ad3d" d="M 77.957031 38.527344 C 77.957031 38.527344 78.046875 36.238281 77.417969 34.671875 C 77.417969 34.671875 78.035156 35.304688 78.914062 38.527344 L 77.957031 38.527344 " fill-opacity="1" fill-rule="nonzero"/></g><g clip-path="url(#f9d714e186)"><path fill="#2e9141" d="M 112.085938 21.015625 C 113.296875 22.199219 113.695312 24.03125 113.8125 24.042969 L 114.640625 24.042969 C 113.246094 21.574219 112.085938 21.015625 112.085938 21.015625 " fill-opacity="1" fill-rule="nonzero"/></g><g clip-path="url(#449ab747c8)"><path fill="#23673a" d="M 114.429688 24.042969 C 114.429688 24.042969 113.921875 20.957031 113.128906 19.859375 C 113.128906 19.859375 114.511719 20.824219 115.390625 24.042969 L 114.429688 24.042969 " fill-opacity="1" fill-rule="nonzero"/></g><g clip-path="url(#88d1baf90c)"><path fill="#2e9141" d="M 116.828125 24.042969 C 116.828125 24.042969 116.917969 21.625 116.289062 20.054688 C 116.289062 20.054688 116.90625 20.632812 117.785156 23.855469 L 116.828125 24.042969 " fill-opacity="1" fill-rule="nonzero"/></g><g clip-path="url(#616e1fe34f)"><path fill="#23673a" d="M 115.199219 24.042969 C 115.199219 24.042969 115.148438 21.25 116.074219 19.191406 C 116.074219 19.191406 115.90625 22.007812 116.132812 24.042969 L 115.199219 24.042969 " fill-opacity="1" fill-rule="nonzero"/></g><g clip-path="url(#a9d87b4d7c)"><path fill="#41ad3d" d="M 115.925781 24.042969 C 115.925781 24.042969 116.199219 20.863281 117.917969 18.792969 C 117.917969 18.792969 116.578125 22.320312 116.957031 24.042969 L 115.925781 24.042969 " fill-opacity="1" fill-rule="nonzero"/></g><g clip-path="url(#e9895ceae4)"><path fill="#23673a" d="M 116.949219 24.042969 C 116.949219 24.042969 117.070312 21.597656 118.398438 19.707031 C 118.398438 19.707031 117.507812 22.980469 117.75 24.042969 L 116.949219 24.042969 " fill-opacity="1" fill-rule="nonzero"/></g><g clip-path="url(#3a87544fe2)"><path fill="#2e9141" d="M 117.359375 24.042969 L 116.628906 24.042969 C 116.628906 24.042969 115.929688 21.410156 114.925781 19.226562 C 114.925781 19.226562 116.769531 21.324219 117.359375 24.042969 " fill-opacity="1" fill-rule="nonzero"/></g><g clip-path="url(#cc7f90d431)"><path fill="#2e9141" d="M 117.253906 24.042969 L 117.992188 24.042969 C 117.992188 24.042969 117.835938 23.105469 119.554688 20.429688 C 119.554688 20.429688 117.46875 21.746094 117.253906 24.042969 " fill-opacity="1" fill-rule="nonzero"/></g><g clip-path="url(#e85ab41590)"><path fill="#41ad3d" d="M 115.023438 24.042969 C 115.023438 24.042969 115.117188 21.757812 114.488281 20.1875 C 114.488281 20.1875 115.105469 20.824219 115.984375 24.042969 L 115.023438 24.042969 " fill-opacity="1" fill-rule="nonzero"/></g><g clip-path="url(#b5a5ecc475)"><path fill="#2e9141" d="M 31.789062 35 C 33 36.183594 33.398438 38.015625 33.515625 38.027344 L 34.34375 38.027344 C 32.949219 35.558594 31.789062 35 31.789062 35 " fill-opacity="1" fill-rule="nonzero"/></g><g clip-path="url(#62a8561cc8)"><path fill="#23673a" d="M 34.136719 38.027344 C 34.136719 38.027344 33.628906 34.941406 32.832031 33.84375 C 32.832031 33.84375 34.214844 34.804688 35.097656 38.027344 L 34.136719 38.027344 " fill-opacity="1" fill-rule="nonzero"/></g><g clip-path="url(#ce9daa7052)"><path fill="#2e9141" d="M 36.53125 38.027344 C 36.53125 38.027344 36.625 35.605469 35.996094 34.039062 C 35.996094 34.039062 36.613281 34.617188 37.492188 37.839844 L 36.53125 38.027344 " fill-opacity="1" fill-rule="nonzero"/></g><g clip-path="url(#d53e0d0dab)"><path fill="#23673a" d="M 34.90625 38.027344 C 34.90625 38.027344 34.855469 35.234375 35.78125 33.175781 C 35.78125 33.175781 35.609375 35.992188 35.839844 38.027344 L 34.90625 38.027344 " fill-opacity="1" fill-rule="nonzero"/></g><g clip-path="url(#72250d2dbc)"><path fill="#41ad3d" d="M 35.628906 38.027344 C 35.628906 38.027344 35.902344 34.847656 37.621094 32.777344 C 37.621094 32.777344 36.285156 36.304688 36.664062 38.027344 L 35.628906 38.027344 " fill-opacity="1" fill-rule="nonzero"/></g><g clip-path="url(#44c106d178)"><path fill="#23673a" d="M 36.652344 38.027344 C 36.652344 38.027344 36.777344 35.582031 38.105469 33.691406 C 38.105469 33.691406 37.210938 36.964844 37.457031 38.027344 L 36.652344 38.027344 " fill-opacity="1" fill-rule="nonzero"/></g><g clip-path="url(#aa2b9ccc59)"><path fill="#2e9141" d="M 37.066406 38.027344 L 36.332031 38.027344 C 36.332031 38.027344 35.636719 35.394531 34.628906 33.210938 C 34.628906 33.210938 36.476562 35.308594 37.066406 38.027344 " fill-opacity="1" fill-rule="nonzero"/></g><g clip-path="url(#ce2426d84e)"><path fill="#2e9141" d="M 36.957031 38.027344 L 37.699219 38.027344 C 37.699219 38.027344 37.539062 37.089844 39.261719 34.414062 C 39.261719 34.414062 37.171875 35.726562 36.957031 38.027344 " fill-opacity="1" fill-rule="nonzero"/></g><g clip-path="url(#b445a33f44)"><path fill="#41ad3d" d="M 34.730469 38.027344 C 34.730469 38.027344 34.824219 35.738281 34.195312 34.171875 C 34.195312 34.171875 34.808594 34.808594 35.691406 38.027344 L 34.730469 38.027344 " fill-opacity="1" fill-rule="nonzero"/></g><g clip-path="url(#6e73dca379)"><path fill="#2e9141" d="M 13.085938 37.542969 C 14.296875 38.726562 14.695312 40.558594 14.8125 40.570312 L 15.640625 40.570312 C 14.246094 38.101562 13.085938 37.542969 13.085938 37.542969 " fill-opacity="1" fill-rule="nonzero"/></g><g clip-path="url(#30491e4265)"><path fill="#23673a" d="M 15.433594 40.570312 C 15.433594 40.570312 14.925781 37.484375 14.128906 36.382812 C 14.128906 36.382812 15.511719 37.347656 16.394531 40.570312 L 15.433594 40.570312 " fill-opacity="1" fill-rule="nonzero"/></g><g clip-path="url(#3b109fb760)"><path fill="#2e9141" d="M 17.828125 40.570312 C 17.828125 40.570312 17.921875 38.148438 17.292969 36.582031 C 17.292969 36.582031 17.910156 37.160156 18.789062 40.378906 L 17.828125 40.570312 " fill-opacity="1" fill-rule="nonzero"/></g><g clip-path="url(#2a5860e58d)"><path fill="#23673a" d="M 16.203125 40.570312 C 16.203125 40.570312 16.152344 37.777344 17.078125 35.71875 C 17.078125 35.71875 16.90625 38.535156 17.136719 40.570312 L 16.203125 40.570312 " fill-opacity="1" fill-rule="nonzero"/></g><g clip-path="url(#3afacd47a2)"><path fill="#41ad3d" d="M 16.925781 40.570312 C 16.925781 40.570312 17.199219 37.390625 18.917969 35.320312 C 18.917969 35.320312 17.582031 38.847656 17.957031 40.570312 L 16.925781 40.570312 " fill-opacity="1" fill-rule="nonzero"/></g><g clip-path="url(#14bd13f903)"><path fill="#23673a" d="M 17.949219 40.570312 C 17.949219 40.570312 18.074219 38.125 19.402344 36.234375 C 19.402344 36.234375 18.507812 39.507812 18.753906 40.570312 L 17.949219 40.570312 " fill-opacity="1" fill-rule="nonzero"/></g><g clip-path="url(#9e40faced7)"><path fill="#2e9141" d="M 18.363281 40.570312 L 17.628906 40.570312 C 17.628906 40.570312 16.933594 37.9375 15.925781 35.753906 C 15.925781 35.753906 17.773438 37.851562 18.363281 40.570312 " fill-opacity="1" fill-rule="nonzero"/></g><g clip-path="url(#1a1bed1c14)"><path fill="#2e9141" d="M 18.253906 40.570312 L 18.996094 40.570312 C 18.996094 40.570312 18.835938 39.632812 20.558594 36.957031 C 20.558594 36.957031 18.46875 38.269531 18.253906 40.570312 " fill-opacity="1" fill-rule="nonzero"/></g><g clip-path="url(#29ed160f6a)"><path fill="#41ad3d" d="M 16.027344 40.570312 C 16.027344 40.570312 16.121094 38.28125 15.492188 36.714844 C 15.492188 36.714844 16.105469 37.347656 16.988281 40.570312 L 16.027344 40.570312 " fill-opacity="1" fill-rule="nonzero"/></g><g clip-path="url(#b9fec6dba1)"><path fill="#2e9141" d="M 93.789062 43.335938 C 94.996094 44.519531 95.394531 46.351562 95.515625 46.363281 L 96.34375 46.363281 C 94.945312 43.894531 93.789062 43.335938 93.789062 43.335938 " fill-opacity="1" fill-rule="nonzero"/></g><g clip-path="url(#3fdcc19fad)"><path fill="#23673a" d="M 96.132812 46.363281 C 96.132812 46.363281 95.625 43.277344 94.832031 42.179688 C 94.832031 42.179688 96.214844 43.144531 97.09375 46.363281 L 96.132812 46.363281 " fill-opacity="1" fill-rule="nonzero"/></g><g clip-path="url(#66e760e4f7)"><path fill="#2e9141" d="M 98.53125 46.363281 C 98.53125 46.363281 98.621094 43.941406 97.992188 42.375 C 97.992188 42.375 98.609375 42.953125 99.488281 46.175781 L 98.53125 46.363281 " fill-opacity="1" fill-rule="nonzero"/></g><g clip-path="url(#384e180305)"><path fill="#23673a" d="M 96.902344 46.363281 C 96.902344 46.363281 96.851562 43.570312 97.777344 41.511719 C 97.777344 41.511719 97.609375 44.328125 97.835938 46.363281 L 96.902344 46.363281 " fill-opacity="1" fill-rule="nonzero"/></g><g clip-path="url(#11ca5cbc29)"><path fill="#41ad3d" d="M 97.628906 46.363281 C 97.628906 46.363281 97.902344 43.183594 99.617188 41.113281 C 99.617188 41.113281 98.28125 44.640625 98.660156 46.363281 L 97.628906 46.363281 " fill-opacity="1" fill-rule="nonzero"/></g><g clip-path="url(#207f50e2ed)"><path fill="#23673a" d="M 98.652344 46.363281 C 98.652344 46.363281 98.773438 43.917969 100.101562 42.027344 C 100.101562 42.027344 99.210938 45.300781 99.453125 46.363281 L 98.652344 46.363281 " fill-opacity="1" fill-rule="nonzero"/></g><g clip-path="url(#6917dd127e)"><path fill="#2e9141" d="M 99.0625 46.363281 L 98.328125 46.363281 C 98.328125 46.363281 97.632812 43.730469 96.625 41.546875 C 96.625 41.546875 98.472656 43.644531 99.0625 46.363281 " fill-opacity="1" fill-rule="nonzero"/></g><g clip-path="url(#d0a51e47ab)"><path fill="#2e9141" d="M 98.953125 46.363281 L 99.695312 46.363281 C 99.695312 46.363281 99.535156 45.425781 101.257812 42.75 C 101.257812 42.75 99.171875 44.066406 98.953125 46.363281 " fill-opacity="1" fill-rule="nonzero"/></g><g clip-path="url(#ba7349bce3)"><path fill="#41ad3d" d="M 96.726562 46.363281 C 96.726562 46.363281 96.820312 44.078125 96.191406 42.507812 C 96.191406 42.507812 96.808594 43.144531 97.6875 46.363281 L 96.726562 46.363281 " fill-opacity="1" fill-rule="nonzero"/></g><g clip-path="url(#519b2c9a1d)"><path fill="#2e9141" d="M 127.917969 27.863281 C 129.128906 29.046875 129.527344 30.878906 129.644531 30.890625 L 130.472656 30.890625 C 129.078125 28.421875 127.917969 27.863281 127.917969 27.863281 " fill-opacity="1" fill-rule="nonzero"/></g><g clip-path="url(#4cda5e8ac4)"><path fill="#23673a" d="M 130.265625 30.890625 C 130.265625 30.890625 129.757812 27.804688 128.960938 26.707031 C 128.960938 26.707031 130.34375 27.667969 131.226562 30.890625 L 130.265625 30.890625 " fill-opacity="1" fill-rule="nonzero"/></g><g clip-path="url(#743b81b270)"><path fill="#2e9141" d="M 132.660156 30.890625 C 132.660156 30.890625 132.753906 28.46875 132.125 26.902344 C 132.125 26.902344 132.742188 27.480469 133.621094 30.703125 L 132.660156 30.890625 " fill-opacity="1" fill-rule="nonzero"/></g><g clip-path="url(#94c57762a3)"><path fill="#23673a" d="M 131.035156 30.890625 C 131.035156 30.890625 130.984375 28.097656 131.910156 26.039062 C 131.910156 26.039062 131.738281 28.855469 131.96875 30.890625 L 131.035156 30.890625 " fill-opacity="1" fill-rule="nonzero"/></g><g clip-path="url(#840881dbc2)"><path fill="#41ad3d" d="M 131.757812 30.890625 C 131.757812 30.890625 132.03125 27.710938 133.75 25.640625 C 133.75 25.640625 132.414062 29.167969 132.792969 30.890625 L 131.757812 30.890625 " fill-opacity="1" fill-rule="nonzero"/></g><g clip-path="url(#1a0c3c5b74)"><path fill="#23673a" d="M 132.78125 30.890625 C 132.78125 30.890625 132.90625 28.445312 134.234375 26.554688 C 134.234375 26.554688 133.34375 29.828125 133.585938 30.890625 L 132.78125 30.890625 " fill-opacity="1" fill-rule="nonzero"/></g><g clip-path="url(#13c7cfda90)"><path fill="#2e9141" d="M 133.195312 30.890625 L 132.460938 30.890625 C 132.460938 30.890625 131.765625 28.257812 130.757812 26.074219 C 130.757812 26.074219 132.605469 28.171875 133.195312 30.890625 " fill-opacity="1" fill-rule="nonzero"/></g><g clip-path="url(#e90c2d2e99)"><path fill="#2e9141" d="M 133.085938 30.890625 L 133.828125 30.890625 C 133.828125 30.890625 133.667969 29.953125 135.390625 27.277344 C 135.390625 27.277344 133.300781 28.589844 133.085938 30.890625 " fill-opacity="1" fill-rule="nonzero"/></g><g clip-path="url(#de9e8f3652)"><path fill="#41ad3d" d="M 130.859375 30.890625 C 130.859375 30.890625 130.953125 28.601562 130.324219 27.035156 C 130.324219 27.035156 130.9375 27.671875 131.820312 30.890625 L 130.859375 30.890625 " fill-opacity="1" fill-rule="nonzero"/></g><g clip-path="url(#f5ada9c87b)"><path fill="#2e9141" d="M 106.125 56.28125 C 107.335938 57.464844 107.734375 59.296875 107.851562 59.308594 L 108.679688 59.308594 C 107.285156 56.839844 106.125 56.28125 106.125 56.28125 " fill-opacity="1" fill-rule="nonzero"/></g><g clip-path="url(#d3ef9a8866)"><path fill="#23673a" d="M 108.472656 59.308594 C 108.472656 59.308594 107.960938 56.222656 107.167969 55.121094 C 107.167969 55.121094 108.550781 56.085938 109.429688 59.308594 L 108.472656 59.308594 " fill-opacity="1" fill-rule="nonzero"/></g><g clip-path="url(#86349fca09)"><path fill="#2e9141" d="M 110.867188 59.308594 C 110.867188 59.308594 110.960938 56.886719 110.332031 55.320312 C 110.332031 55.320312 110.945312 55.898438 111.824219 59.117188 L 110.867188 59.308594 " fill-opacity="1" fill-rule="nonzero"/></g><g clip-path="url(#41e3da7223)"><path fill="#23673a" d="M 109.238281 59.308594 C 109.238281 59.308594 109.1875 56.515625 110.113281 54.457031 C 110.113281 54.457031 109.945312 57.273438 110.171875 59.308594 L 109.238281 59.308594 " fill-opacity="1" fill-rule="nonzero"/></g><g clip-path="url(#c63f39e8dc)"><path fill="#41ad3d" d="M 109.964844 59.308594 C 109.964844 59.308594 110.238281 56.128906 111.957031 54.058594 C 111.957031 54.058594 110.617188 57.585938 110.996094 59.308594 L 109.964844 59.308594 " fill-opacity="1" fill-rule="nonzero"/></g><g clip-path="url(#6a36a86f1b)"><path fill="#23673a" d="M 110.988281 59.308594 C 110.988281 59.308594 111.109375 56.863281 112.4375 54.972656 C 112.4375 54.972656 111.546875 58.246094 111.789062 59.308594 L 110.988281 59.308594 " fill-opacity="1" fill-rule="nonzero"/></g><g clip-path="url(#c4c45b8b85)"><path fill="#2e9141" d="M 111.398438 59.308594 L 110.667969 59.308594 C 110.667969 59.308594 109.96875 56.675781 108.964844 54.492188 C 108.964844 54.492188 110.808594 56.589844 111.398438 59.308594 " fill-opacity="1" fill-rule="nonzero"/></g><g clip-path="url(#d661090ef9)"><path fill="#2e9141" d="M 111.292969 59.308594 L 112.03125 59.308594 C 112.03125 59.308594 111.875 58.371094 113.597656 55.695312 C 113.597656 55.695312 111.507812 57.007812 111.292969 59.308594 " fill-opacity="1" fill-rule="nonzero"/></g><g clip-path="url(#be2b6541e9)"><path fill="#41ad3d" d="M 109.066406 59.308594 C 109.066406 59.308594 109.15625 57.019531 108.527344 55.453125 C 108.527344 55.453125 109.144531 56.085938 110.023438 59.308594 L 109.066406 59.308594 " fill-opacity="1" fill-rule="nonzero"/></g><path fill="#947151" d="M 24.996094 15.878906 C 25.101562 14.464844 26.789062 14.402344 26.789062 14.402344 C 24.636719 13.640625 24.152344 15.792969 24.277344 15.960938 C 24.449219 16.152344 24.976562 16.214844 24.996094 15.878906 " fill-opacity="1" fill-rule="nonzero"/><g clip-path="url(#bf86a95087)"><path fill="#c2aca1" d="M 32.863281 18.621094 C 32.632812 18.113281 33.285156 16.34375 33.285156 16.34375 C 33.285156 16.34375 34.890625 18.15625 33.328125 19.019531 C 33.242188 19.0625 32.90625 18.703125 32.863281 18.621094 " fill-opacity="1" fill-rule="nonzero"/></g><path fill="#c2aca1" d="M 23.203125 21.046875 C 23.203125 21.046875 22.613281 20.074219 23.457031 18.875 L 22.253906 19.421875 C 21.683594 20.539062 23.203125 21.046875 23.203125 21.046875 " fill-opacity="1" fill-rule="nonzero"/><path fill="#f1e7dc" d="M 33.496094 23.238281 C 33.179688 22.375 33.265625 22.015625 33.265625 22.015625 C 34.066406 20.5625 33.519531 18.492188 32.714844 18.367188 C 29.847656 17.859375 26.136719 18.703125 26.136719 17.734375 C 26.136719 15.730469 24.449219 14.484375 23.117188 15.710938 C 22.167969 16.59375 22.929688 16.890625 21.472656 18.703125 C 21.136719 19.105469 21.515625 19.421875 22.167969 19.546875 C 22.378906 19.589844 22.445312 19.570312 22.972656 19.296875 C 23.476562 19.019531 24.195312 19.359375 24.382812 18.410156 C 24.382812 18.410156 24.277344 20.773438 25.714844 22.394531 C 25.714844 22.394531 26.007812 23.238281 25.4375 25.539062 L 26.136719 25.539062 L 26.769531 23.789062 C 26.769531 23.789062 26.640625 22.542969 27.042969 22.671875 C 28.285156 23.113281 31.367188 22.355469 31.367188 22.355469 C 31.660156 22.945312 32.609375 23.515625 32.609375 23.515625 C 32.609375 23.515625 32.316406 24.210938 32.359375 25.539062 L 33.097656 25.539062 C 33.136719 25.03125 33.496094 23.238281 33.496094 23.238281 " fill-opacity="1" fill-rule="nonzero"/><g clip-path="url(#8605cefd80)"><path fill="#947151" d="M 25.292969 26.085938 L 25.964844 26.085938 L 26.09375 25.558594 L 25.398438 25.558594 C 25.355469 25.875 25.292969 26.085938 25.292969 26.085938 " fill-opacity="1" fill-rule="nonzero"/></g><g clip-path="url(#087d1cd8fe)"><path fill="#947151" d="M 32.335938 25.558594 C 32.292969 25.875 32.316406 26.085938 32.316406 26.085938 L 33.03125 26.085938 C 33.03125 26.085938 33.03125 25.875 33.074219 25.558594 L 32.335938 25.558594 " fill-opacity="1" fill-rule="nonzero"/></g><path fill="#3e4347" d="M 23.816406 16.996094 C 23.816406 17.082031 23.785156 17.15625 23.722656 17.21875 C 23.660156 17.28125 23.585938 17.3125 23.5 17.3125 C 23.410156 17.3125 23.335938 17.28125 23.273438 17.21875 C 23.214844 17.15625 23.183594 17.082031 23.183594 16.996094 C 23.183594 16.910156 23.214844 16.832031 23.273438 16.773438 C 23.335938 16.710938 23.410156 16.679688 23.5 16.679688 C 23.585938 16.679688 23.660156 16.710938 23.722656 16.773438 C 23.785156 16.832031 23.816406 16.910156 23.816406 16.996094 Z M 23.816406 16.996094 " fill-opacity="1" fill-rule="nonzero"/><path fill="#c2aca1" d="M 21.875 18.851562 C 21.851562 18.894531 21.746094 18.957031 21.707031 18.914062 C 21.664062 18.894531 21.683594 18.789062 21.726562 18.726562 C 21.746094 18.683594 21.8125 18.664062 21.851562 18.703125 C 21.894531 18.746094 21.894531 18.808594 21.875 18.851562 " fill-opacity="1" fill-rule="nonzero"/><path fill="#c2aca1" d="M 22.949219 18.347656 C 23.011719 18.597656 22.949219 18.875 22.800781 19.105469 C 22.738281 19.210938 22.632812 19.316406 22.527344 19.402344 C 22.421875 19.484375 22.296875 19.527344 22.167969 19.570312 C 22.378906 19.421875 22.570312 19.273438 22.695312 19.0625 C 22.761719 18.957031 22.800781 18.851562 22.84375 18.726562 C 22.886719 18.597656 22.929688 18.472656 22.949219 18.347656 " fill-opacity="1" fill-rule="nonzero"/><path fill="#f1e7dc" d="M 25.082031 16.46875 C 26.386719 16.425781 26.242188 14.65625 26.03125 14.761719 C 25.691406 14.929688 24.636719 15.414062 24.636719 16.003906 C 24.636719 16.109375 24.511719 16.488281 25.082031 16.46875 " fill-opacity="1" fill-rule="nonzero"/><path fill="#c2aca1" d="M 24.933594 15.878906 C 25.039062 15.539062 25.796875 15.160156 25.925781 15.117188 C 26.050781 15.054688 26.050781 15.960938 25.207031 16.320312 C 25.121094 16.363281 25.039062 16.363281 24.996094 16.300781 C 24.953125 16.238281 25.144531 16.109375 25.269531 16.046875 C 25.417969 15.984375 25.25 16.003906 25.144531 16.027344 C 25.039062 16.066406 25.101562 15.984375 25.1875 15.941406 C 25.269531 15.878906 25.058594 15.941406 24.976562 16.027344 C 24.890625 16.109375 24.871094 16.109375 24.933594 15.878906 " fill-opacity="1" fill-rule="nonzero"/><g clip-path="url(#3aec4e4611)"><path fill="#947151" d="M 24.53125 15.6875 C 24.152344 14.105469 25.988281 13.429688 25.988281 13.429688 C 23.328125 13.347656 23.5625 15.898438 23.773438 16.027344 C 24.027344 16.171875 24.617188 16.066406 24.53125 15.6875 " fill-opacity="1" fill-rule="nonzero"/></g><g fill="#000000" fill-opacity="1"><g transform="translate(3.458206, 6.399998)"><g><path d="M 2.578125 0 L 2.21875 0 L 1.953125 -0.78125 L 0.734375 -0.78125 L 0.46875 0 L 0.109375 0 L 1.109375 -2.859375 L 1.578125 -2.859375 Z M 1.3125 -2.515625 L 0.828125 -1.0625 L 1.859375 -1.0625 L 1.359375 -2.515625 Z M 1.3125 -2.515625 "/></g></g></g><g fill="#000000" fill-opacity="1"><g transform="translate(143.373039, 6.399998)"><g><path d="M 0.4375 0 L 0.4375 -2.859375 L 1.515625 -2.859375 C 1.691406 -2.859375 1.835938 -2.828125 1.953125 -2.765625 C 2.078125 -2.710938 2.171875 -2.632812 2.234375 -2.53125 C 2.296875 -2.425781 2.328125 -2.300781 2.328125 -2.15625 C 2.328125 -2.039062 2.289062 -1.929688 2.21875 -1.828125 C 2.15625 -1.722656 2.0625 -1.644531 1.9375 -1.59375 L 1.9375 -1.546875 C 2.132812 -1.503906 2.28125 -1.421875 2.375 -1.296875 C 2.46875 -1.171875 2.515625 -1.015625 2.515625 -0.828125 C 2.515625 -0.566406 2.4375 -0.363281 2.28125 -0.21875 C 2.132812 -0.0703125 1.90625 0 1.59375 0 Z M 1.5 -1.65625 C 1.65625 -1.65625 1.773438 -1.695312 1.859375 -1.78125 C 1.953125 -1.863281 2 -1.976562 2 -2.125 C 2 -2.269531 1.957031 -2.378906 1.875 -2.453125 C 1.789062 -2.535156 1.664062 -2.578125 1.5 -2.578125 L 0.765625 -2.578125 L 0.765625 -1.65625 Z M 1.578125 -0.28125 C 1.984375 -0.28125 2.1875 -0.460938 2.1875 -0.828125 C 2.1875 -1.191406 1.984375 -1.375 1.578125 -1.375 L 0.765625 -1.375 L 0.765625 -0.28125 Z M 1.578125 -0.28125 "/></g></g></g><g fill="#000000" fill-opacity="1"><g transform="translate(143.349601, 70.849995)"><g><path d="M 1.578125 0.046875 C 1.328125 0.046875 1.101562 -0.0078125 0.90625 -0.125 C 0.71875 -0.238281 0.566406 -0.40625 0.453125 -0.625 C 0.335938 -0.851562 0.28125 -1.117188 0.28125 -1.421875 C 0.28125 -1.734375 0.335938 -2 0.453125 -2.21875 C 0.566406 -2.4375 0.71875 -2.601562 0.90625 -2.71875 C 1.101562 -2.832031 1.328125 -2.890625 1.578125 -2.890625 C 1.847656 -2.890625 2.070312 -2.835938 2.25 -2.734375 C 2.425781 -2.640625 2.550781 -2.492188 2.625 -2.296875 L 2.40625 -2.140625 L 2.359375 -2.140625 C 2.285156 -2.304688 2.1875 -2.421875 2.0625 -2.484375 C 1.9375 -2.554688 1.773438 -2.59375 1.578125 -2.59375 C 1.398438 -2.59375 1.238281 -2.550781 1.09375 -2.46875 C 0.957031 -2.394531 0.847656 -2.269531 0.765625 -2.09375 C 0.679688 -1.914062 0.640625 -1.691406 0.640625 -1.421875 C 0.640625 -1.148438 0.679688 -0.925781 0.765625 -0.75 C 0.847656 -0.582031 0.957031 -0.457031 1.09375 -0.375 C 1.238281 -0.300781 1.398438 -0.265625 1.578125 -0.265625 C 1.785156 -0.265625 1.953125 -0.3125 2.078125 -0.40625 C 2.210938 -0.5 2.3125 -0.648438 2.375 -0.859375 L 2.421875 -0.859375 L 2.65625 -0.75 C 2.582031 -0.488281 2.453125 -0.289062 2.265625 -0.15625 C 2.085938 -0.0195312 1.859375 0.046875 1.578125 0.046875 Z M 1.578125 0.046875 "/></g></g></g><g fill="#000000" fill-opacity="1"><g transform="translate(4.605471, 70.849995)"><g><path d="M 1.359375 -2.859375 C 1.648438 -2.859375 1.894531 -2.804688 2.09375 -2.703125 C 2.300781 -2.597656 2.460938 -2.4375 2.578125 -2.21875 C 2.691406 -2.007812 2.75 -1.742188 2.75 -1.421875 C 2.75 -1.109375 2.691406 -0.84375 2.578125 -0.625 C 2.460938 -0.414062 2.300781 -0.257812 2.09375 -0.15625 C 1.894531 -0.0507812 1.648438 0 1.359375 0 L 0.4375 0 L 0.4375 -2.859375 Z M 1.328125 -0.28125 C 1.566406 -0.28125 1.765625 -0.316406 1.921875 -0.390625 C 2.078125 -0.472656 2.191406 -0.597656 2.265625 -0.765625 C 2.347656 -0.929688 2.390625 -1.148438 2.390625 -1.421875 C 2.390625 -1.703125 2.347656 -1.925781 2.265625 -2.09375 C 2.191406 -2.257812 2.078125 -2.378906 1.921875 -2.453125 C 1.765625 -2.535156 1.566406 -2.578125 1.328125 -2.578125 L 0.765625 -2.578125 L 0.765625 -0.28125 Z M 1.328125 -0.28125 "/></g></g></g><path fill="#7d5e41" d="M 53.046875 50.105469 C 52.894531 48.082031 50.480469 47.992188 50.480469 47.992188 C 53.558594 46.90625 54.253906 49.984375 54.070312 50.226562 C 53.828125 50.496094 53.074219 50.589844 53.046875 50.105469 " fill-opacity="1" fill-rule="nonzero"/><path fill="#c2aca1" d="M 41.789062 54.027344 C 42.121094 53.304688 41.1875 50.769531 41.1875 50.769531 C 41.1875 50.769531 38.894531 53.363281 41.125 54.601562 C 41.246094 54.660156 41.730469 54.148438 41.789062 54.027344 " fill-opacity="1" fill-rule="nonzero"/><path fill="#c2aca1" d="M 55.609375 57.5 C 55.609375 57.5 56.453125 56.109375 55.246094 54.390625 L 56.96875 55.175781 C 57.78125 56.773438 55.609375 57.5 55.609375 57.5 " fill-opacity="1" fill-rule="nonzero"/><g clip-path="url(#8871042727)"><path fill="#f4dec5" d="M 40.882812 60.636719 C 41.335938 59.398438 41.214844 58.886719 41.214844 58.886719 C 40.070312 56.804688 40.855469 53.847656 42 53.664062 C 46.105469 52.941406 51.414062 54.148438 51.414062 52.761719 C 51.414062 49.894531 53.828125 48.113281 55.730469 49.863281 C 57.089844 51.132812 56.003906 51.554688 58.085938 54.148438 C 58.566406 54.722656 58.023438 55.175781 57.089844 55.355469 C 56.785156 55.417969 56.695312 55.386719 55.941406 54.992188 C 55.21875 54.601562 54.191406 55.085938 53.921875 53.726562 C 53.921875 53.726562 54.070312 57.105469 52.019531 59.429688 C 52.019531 59.429688 51.597656 60.636719 52.410156 63.925781 L 51.414062 63.925781 L 50.511719 61.421875 C 50.511719 61.421875 50.691406 59.640625 50.117188 59.820312 C 48.335938 60.457031 43.933594 59.367188 43.933594 59.367188 C 43.507812 60.214844 42.152344 61.027344 42.152344 61.027344 C 42.152344 61.027344 42.574219 62.023438 42.515625 63.925781 L 41.457031 63.925781 C 41.398438 63.203125 40.882812 60.636719 40.882812 60.636719 " fill-opacity="1" fill-rule="nonzero"/></g><path fill="#7d5e41" d="M 52.621094 64.710938 L 51.65625 64.710938 L 51.476562 63.957031 L 52.472656 63.957031 C 52.53125 64.410156 52.621094 64.710938 52.621094 64.710938 " fill-opacity="1" fill-rule="nonzero"/><path fill="#7d5e41" d="M 42.542969 63.957031 C 42.605469 64.410156 42.574219 64.710938 42.574219 64.710938 L 41.546875 64.710938 C 41.546875 64.710938 41.546875 64.410156 41.488281 63.957031 L 42.542969 63.957031 " fill-opacity="1" fill-rule="nonzero"/><path fill="#3e4347" d="M 54.734375 51.703125 C 54.734375 51.828125 54.777344 51.9375 54.867188 52.023438 C 54.957031 52.113281 55.0625 52.15625 55.1875 52.15625 C 55.3125 52.15625 55.417969 52.113281 55.507812 52.023438 C 55.597656 51.9375 55.640625 51.828125 55.640625 51.703125 C 55.640625 51.578125 55.597656 51.472656 55.507812 51.382812 C 55.417969 51.296875 55.3125 51.25 55.1875 51.25 C 55.0625 51.25 54.957031 51.296875 54.867188 51.382812 C 54.777344 51.472656 54.734375 51.578125 54.734375 51.703125 Z M 54.734375 51.703125 " fill-opacity="1" fill-rule="nonzero"/><path fill="#c2aca1" d="M 57.511719 54.359375 C 57.542969 54.421875 57.691406 54.511719 57.753906 54.449219 C 57.8125 54.421875 57.78125 54.269531 57.722656 54.179688 C 57.691406 54.117188 57.601562 54.089844 57.542969 54.148438 C 57.480469 54.210938 57.480469 54.300781 57.511719 54.359375 " fill-opacity="1" fill-rule="nonzero"/><path fill="#c2aca1" d="M 55.972656 53.636719 C 55.882812 53.996094 55.972656 54.390625 56.183594 54.722656 C 56.273438 54.871094 56.425781 55.023438 56.574219 55.144531 C 56.726562 55.265625 56.90625 55.324219 57.089844 55.386719 C 56.785156 55.175781 56.515625 54.964844 56.335938 54.660156 C 56.242188 54.511719 56.183594 54.359375 56.121094 54.179688 C 56.0625 53.996094 56.003906 53.816406 55.972656 53.636719 " fill-opacity="1" fill-rule="nonzero"/><path fill="#f4dec5" d="M 52.925781 50.949219 C 51.054688 50.890625 51.265625 48.355469 51.566406 48.503906 C 52.050781 48.746094 53.558594 49.441406 53.558594 50.285156 C 53.558594 50.4375 53.738281 50.980469 52.925781 50.949219 " fill-opacity="1" fill-rule="nonzero"/><path fill="#c2aca1" d="M 53.136719 50.105469 C 52.984375 49.621094 51.898438 49.078125 51.71875 49.019531 C 51.535156 48.929688 51.535156 50.226562 52.742188 50.738281 C 52.863281 50.800781 52.984375 50.800781 53.046875 50.707031 C 53.105469 50.617188 52.832031 50.4375 52.652344 50.347656 C 52.441406 50.257812 52.683594 50.285156 52.832031 50.316406 C 52.984375 50.375 52.894531 50.257812 52.773438 50.195312 C 52.652344 50.105469 52.953125 50.195312 53.074219 50.316406 C 53.195312 50.4375 53.226562 50.4375 53.136719 50.105469 " fill-opacity="1" fill-rule="nonzero"/><path fill="#7d5e41" d="M 53.707031 49.832031 C 54.253906 47.570312 51.625 46.605469 51.625 46.605469 C 55.429688 46.484375 55.097656 50.136719 54.796875 50.316406 C 54.433594 50.527344 53.589844 50.375 53.707031 49.832031 " fill-opacity="1" fill-rule="nonzero"/><path fill="#3e4347" d="M 121.980469 38.84375 C 122.167969 36.359375 125.132812 36.25 125.132812 36.25 C 121.351562 34.914062 120.5 38.695312 120.71875 38.992188 C 121.015625 39.328125 121.945312 39.4375 121.980469 38.84375 " fill-opacity="1" fill-rule="nonzero"/><path fill="#c2aca1" d="M 135.8125 43.664062 C 135.402344 42.777344 136.554688 39.660156 136.554688 39.660156 C 136.554688 39.660156 139.371094 42.851562 136.628906 44.371094 C 136.480469 44.445312 135.886719 43.8125 135.8125 43.664062 " fill-opacity="1" fill-rule="nonzero"/><path fill="#c2aca1" d="M 118.828125 47.929688 C 118.828125 47.929688 117.792969 46.222656 119.273438 44.109375 L 117.160156 45.074219 C 116.160156 47.039062 118.828125 47.929688 118.828125 47.929688 " fill-opacity="1" fill-rule="nonzero"/><path fill="#ebc59b" d="M 136.925781 51.785156 C 136.367188 50.265625 136.515625 49.636719 136.515625 49.636719 C 137.925781 47.078125 136.960938 43.441406 135.550781 43.21875 C 130.507812 42.332031 123.984375 43.8125 123.984375 42.109375 C 123.984375 38.585938 121.015625 36.398438 118.679688 38.546875 C 117.011719 40.105469 118.347656 40.625 115.789062 43.8125 C 115.195312 44.519531 115.863281 45.074219 117.011719 45.296875 C 117.382812 45.371094 117.496094 45.335938 118.421875 44.851562 C 119.3125 44.371094 120.570312 44.964844 120.90625 43.292969 C 120.90625 43.292969 120.71875 47.449219 123.242188 50.300781 C 123.242188 50.300781 123.761719 51.785156 122.761719 55.828125 L 123.984375 55.828125 L 125.097656 52.75 C 125.097656 52.75 124.875 50.5625 125.578125 50.785156 C 127.765625 51.5625 133.179688 50.226562 133.179688 50.226562 C 133.699219 51.265625 135.367188 52.269531 135.367188 52.269531 C 135.367188 52.269531 134.847656 53.492188 134.921875 55.828125 L 136.21875 55.828125 C 136.292969 54.9375 136.925781 51.785156 136.925781 51.785156 " fill-opacity="1" fill-rule="nonzero"/><path fill="#3e4347" d="M 122.5 56.792969 L 123.6875 56.792969 L 123.910156 55.863281 L 122.6875 55.863281 C 122.613281 56.421875 122.5 56.792969 122.5 56.792969 " fill-opacity="1" fill-rule="nonzero"/><path fill="#3e4347" d="M 134.882812 55.863281 C 134.808594 56.421875 134.847656 56.792969 134.847656 56.792969 L 136.109375 56.792969 C 136.109375 56.792969 136.109375 56.421875 136.183594 55.863281 L 134.882812 55.863281 " fill-opacity="1" fill-rule="nonzero"/><path fill="#3e4347" d="M 119.90625 40.808594 C 119.90625 40.964844 119.851562 41.09375 119.742188 41.203125 C 119.632812 41.3125 119.503906 41.367188 119.347656 41.367188 C 119.195312 41.367188 119.0625 41.3125 118.957031 41.203125 C 118.847656 41.09375 118.792969 40.964844 118.792969 40.808594 C 118.792969 40.65625 118.847656 40.527344 118.957031 40.417969 C 119.0625 40.308594 119.195312 40.253906 119.347656 40.253906 C 119.503906 40.253906 119.632812 40.308594 119.742188 40.417969 C 119.851562 40.527344 119.90625 40.65625 119.90625 40.808594 Z M 119.90625 40.808594 " fill-opacity="1" fill-rule="nonzero"/><path fill="#c2aca1" d="M 116.492188 44.074219 C 116.457031 44.148438 116.269531 44.257812 116.195312 44.183594 C 116.121094 44.148438 116.160156 43.960938 116.234375 43.851562 C 116.269531 43.777344 116.382812 43.738281 116.457031 43.8125 C 116.53125 43.886719 116.53125 44 116.492188 44.074219 " fill-opacity="1" fill-rule="nonzero"/><path fill="#c2aca1" d="M 118.382812 43.183594 C 118.496094 43.628906 118.382812 44.109375 118.125 44.519531 C 118.015625 44.703125 117.828125 44.890625 117.644531 45.039062 C 117.457031 45.1875 117.234375 45.261719 117.011719 45.335938 C 117.382812 45.074219 117.71875 44.816406 117.941406 44.445312 C 118.050781 44.257812 118.125 44.074219 118.199219 43.851562 C 118.273438 43.628906 118.347656 43.40625 118.382812 43.183594 " fill-opacity="1" fill-rule="nonzero"/><path fill="#ebc59b" d="M 122.128906 39.882812 C 124.429688 39.808594 124.167969 36.695312 123.796875 36.878906 C 123.203125 37.175781 121.351562 38.03125 121.351562 39.066406 C 121.351562 39.253906 121.128906 39.921875 122.128906 39.882812 " fill-opacity="1" fill-rule="nonzero"/><path fill="#c2aca1" d="M 121.871094 38.84375 C 122.054688 38.253906 123.390625 37.585938 123.613281 37.511719 C 123.835938 37.398438 123.835938 38.992188 122.351562 39.625 C 122.203125 39.699219 122.054688 39.699219 121.980469 39.585938 C 121.90625 39.476562 122.242188 39.253906 122.464844 39.140625 C 122.722656 39.03125 122.425781 39.066406 122.242188 39.105469 C 122.054688 39.179688 122.167969 39.03125 122.316406 38.957031 C 122.464844 38.84375 122.09375 38.957031 121.945312 39.105469 C 121.796875 39.253906 121.757812 39.253906 121.871094 38.84375 " fill-opacity="1" fill-rule="nonzero"/><path fill="#3e4347" d="M 121.164062 38.511719 C 120.5 35.730469 123.722656 34.542969 123.722656 34.542969 C 119.050781 34.394531 119.460938 38.882812 119.832031 39.105469 C 120.277344 39.363281 121.3125 39.179688 121.164062 38.511719 " fill-opacity="1" fill-rule="nonzero"/><g fill="#000000" fill-opacity="1"><g transform="translate(15.691729, 19.920003)"><g><path d="M 1.453125 -2.859375 C 1.648438 -2.859375 1.816406 -2.820312 1.953125 -2.75 C 2.097656 -2.675781 2.207031 -2.570312 2.28125 -2.4375 C 2.351562 -2.3125 2.390625 -2.160156 2.390625 -1.984375 C 2.390625 -1.804688 2.351562 -1.648438 2.28125 -1.515625 C 2.207031 -1.390625 2.097656 -1.289062 1.953125 -1.21875 C 1.816406 -1.15625 1.648438 -1.125 1.453125 -1.125 L 0.765625 -1.125 L 0.765625 0 L 0.4375 0 L 0.4375 -2.859375 Z M 1.4375 -1.40625 C 1.84375 -1.40625 2.046875 -1.597656 2.046875 -1.984375 C 2.046875 -2.378906 1.84375 -2.578125 1.4375 -2.578125 L 0.765625 -2.578125 L 0.765625 -1.40625 Z M 1.4375 -1.40625 "/></g></g></g><g fill="#000000" fill-opacity="1"><g transform="translate(42.189072, 49.021257)"><g><path d="M 2.296875 0.671875 C 2.054688 0.671875 1.859375 0.613281 1.703125 0.5 C 1.546875 0.394531 1.4375 0.238281 1.375 0.03125 C 1.15625 0 0.960938 -0.0703125 0.796875 -0.1875 C 0.640625 -0.300781 0.515625 -0.460938 0.421875 -0.671875 C 0.328125 -0.878906 0.28125 -1.128906 0.28125 -1.421875 C 0.28125 -1.753906 0.335938 -2.03125 0.453125 -2.25 C 0.566406 -2.46875 0.71875 -2.628906 0.90625 -2.734375 C 1.101562 -2.835938 1.320312 -2.890625 1.5625 -2.890625 C 1.8125 -2.890625 2.03125 -2.835938 2.21875 -2.734375 C 2.414062 -2.628906 2.566406 -2.46875 2.671875 -2.25 C 2.785156 -2.03125 2.84375 -1.753906 2.84375 -1.421875 C 2.84375 -0.984375 2.742188 -0.644531 2.546875 -0.40625 C 2.347656 -0.175781 2.070312 -0.0351562 1.71875 0.015625 L 1.703125 0.046875 C 1.753906 0.160156 1.832031 0.242188 1.9375 0.296875 C 2.039062 0.347656 2.160156 0.375 2.296875 0.375 C 2.367188 0.375 2.4375 0.363281 2.5 0.34375 L 2.546875 0.359375 L 2.59375 0.609375 C 2.507812 0.648438 2.410156 0.671875 2.296875 0.671875 Z M 1.5625 -0.265625 C 1.863281 -0.265625 2.09375 -0.359375 2.25 -0.546875 C 2.40625 -0.734375 2.484375 -1.023438 2.484375 -1.421875 C 2.484375 -1.828125 2.40625 -2.125 2.25 -2.3125 C 2.09375 -2.5 1.863281 -2.59375 1.5625 -2.59375 C 0.945312 -2.59375 0.640625 -2.203125 0.640625 -1.421875 C 0.640625 -0.648438 0.945312 -0.265625 1.5625 -0.265625 Z M 1.5625 -0.265625 "/></g></g></g><g fill="#000000" fill-opacity="1"><g transform="translate(109.439087, 38.624996)"><g><path d="M 0.4375 0 L 0.4375 -2.859375 L 1.46875 -2.859375 C 1.65625 -2.859375 1.8125 -2.828125 1.9375 -2.765625 C 2.070312 -2.703125 2.171875 -2.613281 2.234375 -2.5 C 2.304688 -2.382812 2.34375 -2.242188 2.34375 -2.078125 C 2.34375 -1.898438 2.296875 -1.753906 2.203125 -1.640625 C 2.117188 -1.523438 1.984375 -1.441406 1.796875 -1.390625 L 1.796875 -1.34375 C 1.890625 -1.3125 1.960938 -1.253906 2.015625 -1.171875 C 2.078125 -1.097656 2.132812 -0.984375 2.1875 -0.828125 L 2.453125 0 L 2.109375 0 L 1.8125 -0.875 C 1.78125 -0.976562 1.742188 -1.054688 1.703125 -1.109375 C 1.660156 -1.171875 1.601562 -1.210938 1.53125 -1.234375 C 1.46875 -1.265625 1.382812 -1.28125 1.28125 -1.28125 L 0.765625 -1.28125 L 0.765625 0 Z M 1.46875 -1.5625 C 1.644531 -1.5625 1.773438 -1.601562 1.859375 -1.6875 C 1.941406 -1.769531 1.984375 -1.894531 1.984375 -2.0625 C 1.984375 -2.238281 1.941406 -2.367188 1.859375 -2.453125 C 1.773438 -2.535156 1.644531 -2.578125 1.46875 -2.578125 L 0.765625 -2.578125 L 0.765625 -1.5625 Z M 1.46875 -1.5625 "/></g></g></g></svg>